<?xml version="1.0" standalone="no"?><!DOCTYPE svg PUBLIC "-//W3C//DTD SVG 1.1//EN" "http://www.w3.org/Graphics/SVG/1.1/DTD/svg11.dtd"><svg t="1731685085411" class="icon" viewBox="0 0 1024 1024" version="1.1" xmlns="http://www.w3.org/2000/svg" p-id="9380" xmlns:xlink="http://www.w3.org/1999/xlink" width="200" height="200"><path d="M669.551224 966.63848c-69.50274-41.727244-147.517326-45.951167-234.235754-12.671771 84.862462 41.215253 166.652979 51.391069 245.435551 30.527447 41.151254 12.543773 88.318399 40.319269 87.230419 39.487284a338.23387 338.23387 0 0 0-56.958967-34.559373l-5.375903-2.559954a461.81563 461.81563 0 0 1-23.16758-11.967783l2.943947 1.535972v0.063999l-2.751951-1.535972h-0.191996z m-99.710193-177.66078c14.591736 39.487284 20.927621 62.398869 19.007656 68.734754-2.815949 9.471828 17.407684 66.942787 56.958968 84.99046 25.087545 11.455792 38.271306 22.271596 39.487284 32.447411l0.063999 1.279977 0.319994-15.42372c-0.511991-45.439176-12.287777-81.278527-35.391359-107.518051-25.599536-29.119472-52.479049-50.623082-80.446542-64.510831z m23.999565 109.054023c-90.174366-58.878933-179.388749-74.302653-267.707147-46.33516 31.679426 16.511701 63.742845 32.191417 96.318254 46.975149 45.823169 20.607626 131.32562 18.815659 171.388893-0.639989z m-73.470668-306.554444c-6.463883 38.975294-11.58379 67.390779-15.359721 85.246455l-1.023982 4.799913a131.261621 131.261621 0 0 1-4.031927 15.551719c-5.119907 13.759751-17.919675 89.40638 42.623228 140.285457 45.823169-67.32678 38.399304-149.245295-22.207598-245.883544zM255.99072 705.075221c39.295288 47.42314 78.078585 78.654574 116.477889 93.566304 38.271306 14.975729 84.606467 25.599536 138.941482 31.743424-19.391649-30.91144-48.319124-57.214963-86.65443-78.910569-38.399304-21.695607-94.590286-37.119327-168.764941-46.399159z m33.855386-151.037263c7.999855 47.935131 20.607626 82.686501 37.759316 104.318109 36.735334 50.431086 96.766246 79.230564 132.733594 85.438452a1328.103928 1328.103928 0 0 1-17.919675-41.791243c-0.639988-3.83993-9.279832-24.575555-26.047528-62.014876-16.703697-37.439321-58.878933-66.110802-126.525707-85.950442zM474.418761 487.031173c-52.99104 75.518631-55.998985 148.541308-9.151834 219.00403 46.975149-68.41476 50.047093-141.437436 9.151834-219.00403zM273.846396 432.952153c14.975729 26.879513 25.727534 49.727099 32.191417 68.478759 9.663825 28.095491 37.375323 67.390779 102.206147 96.254255 3.007945-16.511701-1.023981-39.359287-11.967783-68.41476-26.047528-46.91115-57.342961-75.710628-93.950297-86.334435a80.766536 80.766536 0 0 1-28.479484-9.983819z m240.507641-117.117877C443.57132 346.041728 413.683862 420.472379 416.627808 451.959808c1.919965 20.99162-0.191997 46.143164-6.399884 75.518631 26.879513-34.431376 50.815079-61.374888 71.870698-80.830534 31.551428-29.24747 36.799333-82.878498 32.255415-130.941627z m-193.916485-35.455358c-21.119617 82.110512 1.919965 153.40522 69.118747 213.756126 16.447702-91.710338-1.919965-131.453617-25.663535-156.349166a331.385994 331.385994 0 0 1-43.519211-57.40696z m35.199362-118.58985c3.391939 32.447412 3.711933 65.022821 0.959983 97.342235-2.75195 32.639408 13.375758 66.494795 48.255125 101.630158 13.759751-36.095346 16.703697-71.230709 8.959837-105.406089-7.871857-34.175381-27.263506-65.278817-58.110946-93.566304z m221.115992 29.75946c-90.878353 32.319414-118.781847 82.558504-123.645759 106.814064-3.199942 16.127708-8.511846 29.695462-15.743714 40.639264 36.031347-13.439756 61.950877-27.647499 77.75859-42.687227 23.679571-22.527592 43.839205-41.599246 61.630883-104.766101zM446.771262 91.454342c-36.031347 58.814934-35.711353 121.597796 1.023982 188.348587 33.727389-58.366942 33.343396-121.149804-1.023982-188.348587z m154.557199 14.271742c-64.766826 22.527592-102.526142 59.902914-113.277947 111.99797 66.110802-18.687661 103.870117-56.062984 113.277947-111.99797zM531.633724 0a138.813484 138.813484 0 0 1-24.703552 32.383413c-15.743715 15.615717-27.647499 63.166855-24.639554 100.798173 1.919965 25.151544 1.279977 38.783297-2.047963 40.959258a158.077135 158.077135 0 0 0 58.366943-85.246455c7.807858-23.935566 5.5039-53.567029-6.975874-88.894389z" fill="#D6A46A" p-id="9381"></path></svg>